<svg id="add" xmlns="http://www.w3.org/2000/svg" width="24" height="24" viewBox="0 0 24 24">
  <path id="Path_25" data-name="Path 25" d="M12,0A12,12,0,1,1,0,12,12,12,0,0,1,12,0Z" fill="#765081"/>
  <path id="Icon_awesome-plus" data-name="Icon awesome-plus" d="M14.711,8.474H9.619V3.382A1.132,1.132,0,0,0,8.487,2.25H7.355A1.132,1.132,0,0,0,6.224,3.382V8.474H1.132A1.132,1.132,0,0,0,0,9.605v1.132a1.132,1.132,0,0,0,1.132,1.132H6.224v5.092a1.132,1.132,0,0,0,1.132,1.132H8.487a1.132,1.132,0,0,0,1.132-1.132V11.869h5.092a1.132,1.132,0,0,0,1.132-1.132V9.605A1.132,1.132,0,0,0,14.711,8.474Z" transform="translate(4.079 1.829)" fill="#fff"/>
</svg>
