<svg xmlns="http://www.w3.org/2000/svg" width="121.016" height="107.57" viewBox="0 0 121.016 107.57">
  <g id="cart" transform="translate(-1090.437 -233.215)">
    <path id="Icon_awesome-shopping-cart" data-name="Icon awesome-shopping-cart" d="M110.957,63.306l9.932-43.7a5.042,5.042,0,0,0-4.917-6.16H33.449L31.523,4.032A5.042,5.042,0,0,0,26.583,0H5.042A5.042,5.042,0,0,0,0,5.042V8.4a5.042,5.042,0,0,0,5.042,5.042H19.725L34.484,85.6a11.767,11.767,0,1,0,14.086,1.8H92.616a11.762,11.762,0,1,0,13.362-2.186l1.159-5.1a5.042,5.042,0,0,0-4.917-6.16H45.826l-1.375-6.723H106.04A5.042,5.042,0,0,0,110.957,63.306Z" transform="translate(1090.437 233.215)" fill="#765081"/>
    <path id="Icon_awesome-star" data-name="Icon awesome-star" d="M18.564,1.276,13.882,10.77,3.406,12.3a2.3,2.3,0,0,0-1.269,3.915L9.716,23.6,7.923,34.03a2.293,2.293,0,0,0,3.327,2.416l9.372-4.926,9.372,4.926a2.3,2.3,0,0,0,3.327-2.416L31.528,23.6l7.579-7.385A2.3,2.3,0,0,0,37.838,12.3L27.362,10.77,22.68,1.276a2.3,2.3,0,0,0-4.116,0Z" transform="translate(1142.945 253.499)" fill="#fdecef"/>
  </g>
</svg>
