<svg width="185" height="169" viewBox="0 0 185 169" fill="none" xmlns="http://www.w3.org/2000/svg">
<g id="empty_bag 1">
<g id="empty_bag">
<g id="star" style="transform-origin: center; transform-box: fill-box; animation: spin 2s linear infinite;" filter="url(#filter0_d_422_2)">
<path id="star_2" d="M91.876 29.948L76.796 60.523L43.057 65.442C41.6933 65.6426 40.4129 66.2204 39.3602 67.1101C38.3075 67.9998 37.5245 69.1661 37.0995 70.4772C36.6744 71.7884 36.6244 73.1922 36.9549 74.5303C37.2854 75.8684 37.9834 77.0875 38.97 78.05L63.379 101.835L57.606 135.435C57.3738 136.793 57.526 138.189 58.0455 139.465C58.5649 140.74 59.4309 141.846 60.5456 142.655C61.6602 143.465 62.9791 143.946 64.3531 144.046C65.7271 144.145 67.1015 143.858 68.321 143.217L98.504 127.352L128.688 143.219C129.908 143.857 131.281 144.143 132.654 144.042C134.027 143.942 135.345 143.46 136.459 142.651C137.573 141.842 138.439 140.738 138.959 139.464C139.479 138.189 139.633 136.794 139.403 135.437L133.628 101.835L158.037 78.049C159.024 77.0866 159.722 75.8674 160.053 74.5292C160.383 73.1909 160.333 71.7869 159.908 70.4755C159.483 69.1642 158.7 67.9978 157.647 67.108C156.594 66.2182 155.314 65.6405 153.95 65.44L120.211 60.523L105.131 29.948C104.518 28.7142 103.573 27.676 102.402 26.9502C101.231 26.2244 99.8811 25.8398 98.5035 25.8398C97.1259 25.8398 95.7756 26.2244 94.6047 26.9502C93.4338 27.676 92.4888 28.7142 91.876 29.948V29.948Z" fill="#FBD0D6"/>
</g>
<path id="Polygon 3" d="M48.8139 107.975C49.4375 107.836 50.0894 107.899 50.6746 108.155C51.2598 108.412 51.7477 108.849 52.0672 109.403C52.3868 109.956 52.5212 110.597 52.451 111.232C52.3808 111.867 52.1096 112.464 51.6769 112.934L25.8024 141.056C25.4838 141.403 25.088 141.67 24.647 141.836C24.206 142.002 23.7321 142.061 23.2638 142.01C22.7955 141.958 22.3459 141.797 21.9515 141.539C21.5571 141.282 21.2289 140.935 20.9935 140.527L9.57646 120.752C9.34074 120.344 9.2044 119.887 9.17848 119.416C9.15257 118.946 9.2378 118.476 9.4273 118.045C9.61679 117.613 9.90521 117.233 10.2692 116.934C10.6332 116.635 11.0625 116.425 11.5224 116.323L48.8139 107.975Z" fill="#FBD0D6"/>
<path id="Polygon 4" d="M136.331 49.9654C135.775 50.2812 135.133 50.4114 134.499 50.3369C133.864 50.2624 133.27 49.9872 132.802 49.5514C132.335 49.1156 132.019 48.5419 131.9 47.9139C131.782 47.2859 131.867 46.6365 132.143 46.0602L148.666 11.6014C148.869 11.1763 149.169 10.8051 149.543 10.5177C149.916 10.2303 150.352 10.0349 150.815 9.94727C151.277 9.85965 151.755 9.8823 152.207 10.0134C152.66 10.1444 153.075 10.3802 153.419 10.7017L170.119 26.2744C170.464 26.5956 170.728 26.9935 170.89 27.4357C171.053 27.878 171.108 28.3523 171.053 28.8202C170.998 29.2881 170.834 29.7365 170.573 30.1289C170.312 30.5214 169.963 30.847 169.553 31.0793L136.331 49.9654Z" fill="#FBD0D6"/>
<path id="Polygon 7" opacity="0.84" d="M40.5722 141.361C41.005 140.86 41.5913 140.517 42.2397 140.384C42.8881 140.251 43.5623 140.336 44.1571 140.626C44.752 140.916 45.2343 141.395 45.5288 141.988C45.8232 142.581 45.9134 143.254 45.7853 143.904L41.7826 164.46C41.6946 164.912 41.5038 165.337 41.2251 165.704C40.9463 166.07 40.5871 166.367 40.1751 166.572C39.7632 166.777 39.3096 166.885 38.8494 166.886C38.3892 166.888 37.9348 166.784 37.5213 166.582L27.7873 161.835C27.3736 161.633 27.0118 161.339 26.7298 160.975C26.4479 160.612 26.2534 160.188 26.1614 159.737C26.0694 159.286 26.0823 158.82 26.1993 158.375C26.3162 157.93 26.534 157.518 26.8357 157.17L40.5722 141.361Z" fill="#FBD0D6"/>
<path id="Polygon 8" opacity="0.84" d="M24.2158 99.257C24.8611 99.4041 25.4397 99.7604 25.8615 100.271C26.2832 100.781 26.5244 101.416 26.5475 102.077C26.5706 102.739 26.3743 103.389 25.9892 103.928C25.604 104.466 25.0517 104.862 24.4182 105.054L4.38845 111.17C3.9483 111.305 3.48315 111.336 3.02899 111.262C2.57482 111.187 2.14381 111.01 1.76931 110.742C1.39481 110.475 1.08686 110.125 0.869279 109.719C0.651699 109.314 0.530321 108.864 0.514542 108.404L0.13658 97.5804C0.120239 97.1205 0.209921 96.663 0.398685 96.2433C0.587449 95.8236 0.870237 95.4529 1.22517 95.16C1.5801 94.8671 1.99766 94.6598 2.44554 94.5541C2.89343 94.4484 3.35963 94.4471 3.80807 94.5504L24.2158 99.257Z" fill="#FBD0D6"/>
<path id="Polygon 9" opacity="0.84" d="M159.669 55.172C159.009 55.1162 158.387 54.8438 157.898 54.3974C157.41 53.9509 157.082 53.3554 156.967 52.7036C156.852 52.0518 156.956 51.3802 157.263 50.7936C157.569 50.2069 158.061 49.7381 158.662 49.4601L177.645 40.6153C178.062 40.421 178.519 40.3253 178.979 40.3356C179.439 40.3458 179.89 40.4618 180.299 40.6746C180.707 40.8873 181.06 41.191 181.332 41.5623C181.604 41.9336 181.787 42.3624 181.867 42.8157L183.747 53.4811C183.827 53.9343 183.802 54.3998 183.674 54.8417C183.545 55.2836 183.317 55.69 183.006 56.0294C182.695 56.3689 182.311 56.6323 181.882 56.7993C181.453 56.9664 180.992 57.0325 180.533 56.9926L159.669 55.172Z" fill="#FBD0D6"/>
<path id="Polygon 10" opacity="0.84" d="M130.265 25.1538C130.03 25.7724 129.596 26.2958 129.033 26.6425C128.469 26.9891 127.806 27.1395 127.148 27.0704C126.49 27.0012 125.873 26.7162 125.393 26.2599C124.914 25.8036 124.599 25.2016 124.497 24.5476L121.227 3.86147C121.156 3.40691 121.189 2.94194 121.326 2.50252C121.463 2.0631 121.699 1.66102 122.016 1.32738C122.333 0.993749 122.722 0.737505 123.154 0.578477C123.586 0.419449 124.048 0.361902 124.506 0.410285L135.277 1.54233C135.734 1.59015 136.175 1.74263 136.564 1.98797C136.954 2.2333 137.281 2.56492 137.522 2.95716C137.763 3.34941 137.91 3.79176 137.952 4.25C137.995 4.70824 137.931 5.17007 137.766 5.59978L130.265 25.1538Z" fill="#FBD0D6"/>
</g>
</g>
<defs>
<filter id="filter0_d_422_2" x="30.7391" y="22.8398" width="135.53" height="130.225" filterUnits="userSpaceOnUse" color-interpolation-filters="sRGB">
<feFlood flood-opacity="0" result="BackgroundImageFix"/>
<feColorMatrix in="SourceAlpha" type="matrix" values="0 0 0 0 0 0 0 0 0 0 0 0 0 0 0 0 0 0 127 0" result="hardAlpha"/>
<feOffset dy="3"/>
<feGaussianBlur stdDeviation="3"/>
<feColorMatrix type="matrix" values="0 0 0 0 0 0 0 0 0 0 0 0 0 0 0 0 0 0 0.161 0"/>
<feBlend mode="normal" in2="BackgroundImageFix" result="effect1_dropShadow_422_2"/>
<feBlend mode="normal" in="SourceGraphic" in2="effect1_dropShadow_422_2" result="shape"/>
</filter>
</defs>
<style>
  @keyframes spin {
  0% {
    transform: rotate(0deg);
  }

  100% {
    transform: rotate(360deg);
  }
}
</style>
</svg>
