<svg id="fav_icon" xmlns="http://www.w3.org/2000/svg" width="33.474" height="59.7" viewBox="0 0 33.474 59.7">
  <path id="headr" d="M34.737-23.7V35.255a.716.716,0,0,1-1.245.507L18,18.57,4.951,4.095,1.263,0V-23.7ZM18,18.57,2.508,35.762a.716.716,0,0,1-1.245-.507V-23.7Z" transform="translate(-1.263 23.7)" fill="#765081"/>
  <path id="Icon_ionic-ios-heart" data-name="Icon ionic-ios-heart" d="M20.812,3.938h-.057A6.527,6.527,0,0,0,15.306,6.92,6.527,6.527,0,0,0,9.857,3.938H9.8a6.485,6.485,0,0,0-6.424,6.482,13.962,13.962,0,0,0,2.742,7.612,48.049,48.049,0,0,0,9.189,8.851,48.049,48.049,0,0,0,9.189-8.851,13.962,13.962,0,0,0,2.742-7.612A6.485,6.485,0,0,0,20.812,3.938Z" transform="translate(1.431 4.788)" fill="#fff"/>
</svg>
