<svg xmlns="http://www.w3.org/2000/svg" width="113.416" height="90.733" viewBox="0 0 113.416 90.733">
  <path id="feature_1" d="M110.581,62.379h-2.835V43.222a8.506,8.506,0,0,0-2.5-6.008l-17.7-17.7a8.507,8.507,0,0,0-6.008-2.5H73.721V8.506A8.508,8.508,0,0,0,65.214,0H8.506A8.508,8.508,0,0,0,0,8.506V65.214a8.508,8.508,0,0,0,8.506,8.506h2.835a17.012,17.012,0,1,0,34.025,0H68.05a17.012,17.012,0,1,0,34.025,0h8.506a2.844,2.844,0,0,0,2.835-2.835V65.214A2.844,2.844,0,0,0,110.581,62.379ZM28.354,82.227a8.506,8.506,0,1,1,8.506-8.506A8.508,8.508,0,0,1,28.354,82.227Zm56.708,0a8.506,8.506,0,1,1,8.506-8.506A8.508,8.508,0,0,1,85.062,82.227Zm14.177-36.86H73.721V25.519h7.815l17.7,17.7Z" fill="#765081"/>
</svg>
