<svg xmlns="http://www.w3.org/2000/svg" width="96.037" height="112.044" viewBox="0 0 96.037 112.044">
  <path id="feature_4" d="M54.445,115.9a48.022,48.022,0,0,0,48.019-48.019A48.022,48.022,0,0,0,54.445,115.9ZM20.326,53.209A13.333,13.333,0,0,0,41.214,64.2l-.107,1.014a13.339,13.339,0,1,0,26.677,0L67.677,64.2a13.188,13.188,0,0,0,7.55,2.348A13.308,13.308,0,0,0,80.936,41.2a13.315,13.315,0,1,0-13.258-23l.107-1.014a13.339,13.339,0,0,0-26.677,0l.107,1.014a13.188,13.188,0,0,0-7.55-2.348A13.308,13.308,0,0,0,27.955,41.2,13.276,13.276,0,0,0,20.326,53.209Zm34.12-25.343A13.339,13.339,0,1,1,41.107,41.2,13.343,13.343,0,0,1,54.445,27.866ZM6.427,67.881A48.022,48.022,0,0,0,54.445,115.9,48.022,48.022,0,0,0,6.427,67.881Z" transform="translate(-6.427 -3.856)" fill="#765081"/>
</svg>
