<svg xmlns="http://www.w3.org/2000/svg" width="113.193" height="99.044" viewBox="0 0 113.193 99.044">
  <path id="feature_2" d="M7.075,94.219a7.067,7.067,0,0,0,7.075,7.075H49.522V65.921H7.075Zm56.6,7.075H99.044a7.067,7.067,0,0,0,7.075-7.075v-28.3H63.671Zm42.447-70.746H96.811a19.277,19.277,0,0,0,2.233-8.843A19.484,19.484,0,0,0,79.589,2.25c-9.2,0-15.144,4.709-22.771,15.1C49.19,6.959,43.243,2.25,34.046,2.25A19.484,19.484,0,0,0,14.591,21.705a19.006,19.006,0,0,0,2.233,8.843H7.075A7.067,7.067,0,0,0,0,37.623V55.309a3.548,3.548,0,0,0,3.537,3.537H109.656a3.548,3.548,0,0,0,3.537-3.537V37.623A7.067,7.067,0,0,0,106.119,30.548Zm-72.094,0a8.843,8.843,0,0,1,0-17.686c4.4,0,7.649.73,19.035,17.686Zm45.565,0H60.554C71.917,13.636,75.079,12.862,79.589,12.862a8.843,8.843,0,0,1,0,17.686Z" transform="translate(0 -2.25)" fill="#765081"/>
</svg>
