<svg xmlns="http://www.w3.org/2000/svg" width="132.111" height="115.844" viewBox="0 0 132.111 115.844">
  <g id="gift" transform="translate(-1030.889 -229.078)">
    <g id="Group_18" data-name="Group 18" transform="translate(345.869 -808.922)">
      <path id="Path_1" data-name="Path 1" d="M22.17,0c4.026,0,9.257,6.42,14.3,7.175,5,.746,9.685-3.944,11.8,0,1.545,2.876-3.5,11.56-3.5,15.415,0,1.027-1.105,1.471-2.106,2.364-1.072.986-2.776,1.986-4.5,3.348a81.969,81.969,0,0,0-6.946,6.8c-2.032,2.1-2.9,4.063-4.547,6.3-1.082,1.478-1.475,3.778-4.491,3.778-1.443,0-.288-1.877-1.078-3-1.672-2.276-2.612-6.585-5.856-9.621C11.069,28.67,2.648,24.651,2.648,18.139,2.648,5.663,9.694,0,22.17,0Z" transform="translate(728.279 1038)" fill="#765081"/>
      <path id="Path_2" data-name="Path 2" d="M18.271.149a16.218,16.218,0,1,1,0,32.436c-8.957,0-31.231-18.939-31.231-27.9S9.314.149,18.271.149Z" transform="translate(764.034 1086.505)" fill="#765081"/>
      <path id="Path_3" data-name="Path 3" d="M3.259.149a16.218,16.218,0,1,0,0,32.436c8.957,0,31.231-18.939,31.231-27.9S12.216.149,3.259.149Z" transform="translate(716.586 1086.505)" fill="#765081"/>
      <path id="Path_4" data-name="Path 4" d="M18.271,32.242C27.228,32.242,53.1,6.848,53.1-2.109S27.228-.194,18.271-.194-12.959,18.745-12.959,27.7,9.314,32.242,18.271,32.242Z" transform="translate(764.034 1055.64)" fill="#765081"/>
      <path id="Path_5" data-name="Path 5" d="M21.866,32.242c-8.957,0-34.825-25.394-34.825-34.351S12.909-.194,21.866-.194,53.1,18.745,53.1,27.7,30.823,32.242,21.866,32.242Z" transform="translate(697.979 1053.323)" fill="#765081"/>
      <path id="Path_7" data-name="Path 7" d="M-3.055-18.006c-1.526,0-.627,9.31-1.5,14.286C-5.4,1.107-3.194,19.963-2.326,27.8c1.658,14.99-1.394,27.8,1.8,27.8S10.973,43.157,10.973,27.8c0-5.328,2.347-10.532.8-15.089C9.175,5.082-.966-18.006-3.055-18.006Z" transform="translate(754.588 1098.239)" fill="#765081"/>
      <path id="Path_9" data-name="Path 9" d="M7.2-16.02c1.526,0,5.627-4.976,6.5,0,.848,4.828-2.519,35.983-3.386,43.823-1.658,14.99,1.394,27.8-1.8,27.8S-2.986,43.157-2.986,27.8c0-5.328-2.347-10.532-.8-15.089C-1.188,5.082,5.112-16.02,7.2-16.02Z" transform="translate(739.575 1098.239)" fill="#765081"/>
    </g>
    <g id="Group_91" data-name="Group 91" transform="translate(36.649 -399.791) rotate(14)">
      <path id="Path_10" data-name="Path 10" d="M20.62,28.966,0,0" transform="translate(1185.5 392.5)" fill="none" stroke="#fdecef" stroke-width="5"/>
      <path id="Icon_awesome-star" data-name="Icon awesome-star" d="M13.8.921l-3.38,6.852L2.86,8.876A1.657,1.657,0,0,0,1.943,11.7l5.471,5.331L6.12,24.563a1.655,1.655,0,0,0,2.4,1.744l6.764-3.556,6.764,3.556a1.656,1.656,0,0,0,2.4-1.744l-1.294-7.53L28.629,11.7a1.657,1.657,0,0,0-.916-2.826l-7.562-1.1L16.771.921a1.658,1.658,0,0,0-2.971,0Z" transform="matrix(0.819, -0.574, 0.574, 0.819, 1164.034, 388.118)" fill="#fdecef"/>
    </g>
  </g>
</svg>
