<svg xmlns="http://www.w3.org/2000/svg" width="151.063" height="125.024" viewBox="0 0 151.063 125.024">
  <g id="prize" transform="translate(-1384.103 -196.054)">
    <path id="Icon_awesome-gift" data-name="Icon awesome-gift" d="M7.053,93.934a7.045,7.045,0,0,0,7.053,7.053H49.369V65.724H7.053Zm56.421,7.053H98.737a7.045,7.045,0,0,0,7.053-7.053V65.724H63.474ZM105.79,30.461H96.511a19.217,19.217,0,0,0,2.226-8.816A19.423,19.423,0,0,0,79.342,2.25c-9.168,0-15.1,4.694-22.7,15.053C49.038,6.944,43.109,2.25,33.941,2.25A19.423,19.423,0,0,0,14.546,21.645a18.947,18.947,0,0,0,2.226,8.816H7.053A7.045,7.045,0,0,0,0,37.513V55.145a3.537,3.537,0,0,0,3.526,3.526h105.79a3.537,3.537,0,0,0,3.526-3.526V37.513A7.045,7.045,0,0,0,105.79,30.461Zm-71.871,0a8.816,8.816,0,0,1,0-17.632c4.386,0,7.626.727,18.976,17.632H33.919Zm45.423,0H60.366C71.695,13.6,74.846,12.829,79.342,12.829a8.816,8.816,0,1,1,0,17.632Z" transform="translate(1404.523 220.091)" fill="#765081"/>
    <path id="Icon_awesome-star" data-name="Icon awesome-star" d="M13.8.921l-3.38,6.852L2.86,8.876A1.657,1.657,0,0,0,1.943,11.7l5.471,5.331L6.12,24.563a1.655,1.655,0,0,0,2.4,1.744l6.764-3.556,6.764,3.556a1.656,1.656,0,0,0,2.4-1.744l-1.294-7.53L28.629,11.7a1.657,1.657,0,0,0-.916-2.826l-7.562-1.1L16.771.921a1.658,1.658,0,0,0-2.971,0Z" transform="translate(1508.156 195.515) rotate(22)" fill="#fdecef"/>
    <path id="Icon_awesome-star-2" data-name="Icon awesome-star" d="M11.061.717,8.43,6.05l-5.885.858a1.29,1.29,0,0,0-.713,2.2L6.09,13.256,5.083,19.117a1.288,1.288,0,0,0,1.869,1.357l5.265-2.767,5.265,2.767a1.289,1.289,0,0,0,1.869-1.357l-1.007-5.861L22.6,9.107a1.29,1.29,0,0,0-.713-2.2L16,6.05,13.373.717a1.29,1.29,0,0,0-2.312,0Z" transform="translate(1382.777 226.953) rotate(-23)" fill="#fdecef"/>
  </g>
</svg>
